<svg version="1.1" id="Layer_1" xmlns="http://www.w3.org/2000/svg" xmlns:xlink="http://www.w3.org/1999/xlink" x="0px" y="0px"
	 width="100%" viewBox="0 0 512 512" enable-background="new 0 0 512 512" xml:space="preserve">
<path fill="#00cfcf" opacity="1.000000" stroke="none" 
	d="
M513.000000,315.000000 
	C513.000000,380.968201 513.000000,446.936401 513.000000,512.952271 
	C342.447388,512.952271 171.894775,512.952271 1.000000,512.952271 
	C1.000000,447.312836 1.000000,381.625061 1.340512,315.563354 
	C3.563022,316.441559 5.313983,318.462708 7.350214,318.809631 
	C15.234582,320.153076 23.211500,320.950195 31.150787,321.975250 
	C41.033836,323.251312 50.889774,324.796661 60.802322,325.766937 
	C69.345650,326.603149 77.855560,326.558319 85.272766,320.946869 
	C90.707581,316.835144 93.997055,311.385834 96.541573,305.039642 
	C106.380424,305.674500 115.768532,306.331299 125.123650,307.349792 
	C123.779594,309.592651 122.456490,311.465607 121.159515,313.356476 
	C114.676498,322.808044 116.639816,336.506439 127.748070,341.957794 
	C134.525452,345.283813 141.029572,344.322510 148.154984,340.543030 
	C145.677017,350.031189 147.692902,357.542877 154.826141,362.855652 
	C162.027267,368.218903 169.898895,367.653931 177.851227,363.152222 
	C175.239731,373.504547 178.451477,382.243317 186.511032,386.724396 
	C193.088882,390.381622 199.826767,389.635925 206.591766,386.650574 
	C206.747604,386.798859 207.083069,387.068237 207.050629,387.521240 
	C206.982590,393.571045 206.366119,399.248413 210.468307,404.004883 
	C218.578201,413.408234 230.392914,415.248077 241.391830,404.868958 
	C248.604126,407.303131 255.207397,406.320221 260.431122,401.743652 
	C266.209930,396.680725 271.280823,390.758789 276.287170,384.892700 
	C278.064880,382.809692 278.866058,382.932312 280.998322,384.241455 
	C289.018585,389.165771 299.835480,387.735870 306.460724,380.905701 
	C311.730438,375.473022 316.718018,369.766724 321.836273,364.175964 
	C334.999756,371.668365 347.359924,368.393036 356.968719,355.096588 
	C359.616364,351.432831 362.853333,348.194977 365.761963,344.828766 
	C378.290741,353.538879 392.408203,348.586060 400.218231,336.405426 
	C405.203827,328.629852 403.379028,318.851044 396.611450,313.207977 
	C392.435211,309.725647 388.220032,306.290009 384.017883,302.595459 
	C384.013397,302.357513 383.877930,301.901215 384.033966,301.587433 
	C386.838623,297.903625 390.234711,296.714447 394.553192,296.874146 
	C401.985870,297.148865 409.436798,296.929779 416.945007,297.335327 
	C417.354980,299.851715 417.697815,301.951019 418.045380,304.049561 
	C419.631287,313.625244 428.104492,322.660461 437.364563,325.013611 
	C448.322540,327.798187 458.961853,324.428986 469.708435,323.508850 
	C479.349609,322.683380 488.914703,320.998840 498.547516,320.034271 
	C503.847290,319.503571 508.961212,318.929474 513.000000,315.000000 
z"/>
<path fill="#00cfcf" opacity="1.000000" stroke="none" 
	d="
M1.000000,302.000000 
	C1.000000,201.705582 1.000000,101.411163 1.000000,1.058371 
	C171.561554,1.058371 342.123108,1.058371 513.000000,1.058371 
	C513.000000,101.022423 513.000000,201.045181 512.628967,301.342407 
	C511.789307,297.423798 511.320648,293.230713 510.921143,288.618896 
	C509.660370,278.121277 508.265747,268.050476 507.019226,257.961334 
	C505.850433,248.501617 504.898682,239.015152 503.740540,229.554031 
	C502.564362,219.945877 501.185394,210.362503 500.019440,200.753189 
	C498.890747,191.450897 498.025818,182.116089 496.853790,172.819687 
	C495.335663,160.777710 493.546417,148.769897 492.028625,136.727890 
	C490.877899,127.597679 490.059418,118.425583 488.908569,109.295387 
	C488.445190,105.619011 484.040253,101.842361 480.485657,102.124809 
	C474.600922,102.592415 468.738770,103.376404 462.879150,104.121788 
	C450.347015,105.715958 437.853699,107.692062 425.286133,108.909164 
	C413.017334,110.097321 401.396973,117.538216 398.654633,130.020660 
	C397.605988,134.793961 398.148254,139.916794 397.536743,144.926453 
	C395.655914,145.192627 394.210541,145.488113 392.750427,145.618164 
	C388.879395,145.962921 384.368744,147.654724 381.250000,146.262527 
	C373.052551,142.603256 365.492767,137.530289 357.617340,133.130798 
	C349.020538,128.328308 340.522308,123.303940 331.673706,119.009689 
	C321.879120,114.256340 311.466248,117.574989 301.410065,118.210091 
	C283.874420,119.317551 266.394226,121.321487 248.897186,123.015663 
	C239.413635,123.933914 230.422470,126.088730 223.555756,133.760239 
	C209.734924,129.893539 196.242767,126.235794 182.805969,122.384880 
	C168.970306,118.419647 159.868515,122.284607 153.432220,135.119522 
	C151.278580,139.414154 148.845718,143.598846 147.070755,148.045441 
	C144.999893,153.233368 141.496567,154.728027 136.222473,154.037781 
	C129.207977,153.119766 122.139313,152.615524 115.056007,151.502747 
	C115.345535,145.815231 115.629921,140.555374 116.009575,135.302414 
	C116.750229,125.054565 107.800980,113.968430 100.007645,112.149704 
	C88.131844,109.378258 75.960892,107.804550 63.867020,106.056030 
	C54.456219,104.695427 44.949287,104.006363 35.529335,102.699776 
	C30.543158,102.008171 25.700439,104.752815 25.056664,109.545013 
	C23.944147,117.826454 22.972395,126.127579 22.015575,134.428970 
	C20.626072,146.484329 19.418343,158.561722 17.920996,170.603333 
	C16.062651,185.548065 13.876867,200.452240 12.040908,215.399536 
	C10.521250,227.771698 9.410148,240.193771 7.922789,252.570267 
	C6.460783,264.735809 4.752865,276.871826 3.100210,289.448456 
	C2.365041,293.917419 1.682521,297.958710 1.000000,302.000000 
z"/>
<path fill="#3681D4" opacity="1.000000" stroke="none" 
	d="
M510.851990,289.037659 
	C511.320648,293.230713 511.789307,297.423798 512.628967,301.808411 
	C513.000000,306.024536 513.000000,310.049103 513.000000,314.536804 
	C508.961212,318.929474 503.847290,319.503571 498.547516,320.034271 
	C488.914703,320.998840 479.349609,322.683380 469.708435,323.508850 
	C458.961853,324.428986 448.322540,327.798187 437.364563,325.013611 
	C428.104492,322.660461 419.631287,313.625244 418.045380,304.049561 
	C417.697815,301.951019 417.354980,299.851715 417.003967,296.911133 
	C416.732880,292.728821 416.467773,289.388092 416.481445,286.213409 
	C424.242065,296.222992 434.117157,300.291565 446.370850,298.725403 
	C456.367279,297.447693 466.428894,296.574219 476.358765,294.908417 
	C487.859497,292.979187 499.841553,293.814972 510.851990,289.037659 
z"/>
<path fill="#CD3B60" opacity="1.000000" stroke="none" 
	d="
M1.000000,302.463196 
	C1.682521,297.958710 2.365041,293.917419 3.460704,289.485901 
	C9.435320,290.395203 14.938375,292.100128 20.570162,292.911682 
	C33.154869,294.725189 45.781551,296.319275 58.434380,297.562714 
	C66.737610,298.378693 75.394524,301.330200 83.340347,296.887695 
	C88.549950,293.975037 93.024490,289.747650 97.871986,286.528809 
	C97.307426,292.986237 96.699120,299.023895 96.090820,305.061584 
	C93.997055,311.385834 90.707581,316.835144 85.272766,320.946869 
	C77.855560,326.558319 69.345650,326.603149 60.802322,325.766937 
	C50.889774,324.796661 41.033836,323.251312 31.150787,321.975250 
	C23.211500,320.950195 15.234582,320.153076 7.350214,318.809631 
	C5.313983,318.462708 3.563022,316.441559 1.340512,315.094727 
	C1.000000,310.975464 1.000000,306.950897 1.000000,302.463196 
z"/>
<path fill="#F9C295" opacity="1.000000" stroke="none" 
	d="
M96.541565,305.039642 
	C96.699120,299.023895 97.307426,292.986237 97.935196,286.092010 
	C100.047882,267.821014 102.111778,250.402939 104.241875,232.992966 
	C106.813316,211.975784 109.382278,190.957916 112.081055,169.956909 
	C112.856873,163.919754 114.077332,157.939728 115.093925,151.933517 
	C122.139313,152.615524 129.207977,153.119766 136.222473,154.037781 
	C141.496567,154.728027 144.999893,153.233368 147.070755,148.045441 
	C148.845718,143.598846 151.278580,139.414154 153.432220,135.119522 
	C159.868515,122.284607 168.970306,118.419647 182.805969,122.384880 
	C196.242767,126.235794 209.734924,129.893539 223.552399,134.118988 
	C222.679977,136.556198 221.407684,138.481140 220.244278,140.469788 
	C213.785217,151.510452 207.330475,162.553772 200.915970,173.620377 
	C190.418518,191.731033 179.793793,209.770813 169.545456,228.021698 
	C164.843201,236.395782 168.020309,244.565979 177.105789,247.410110 
	C195.785126,253.257507 213.138550,250.978302 227.066284,236.241531 
	C234.672668,228.193298 241.377426,219.232544 247.925659,210.271790 
	C250.901840,206.199127 252.527466,206.984955 255.489624,209.930832 
	C264.551941,218.943207 275.463531,224.605820 288.003571,227.244598 
	C292.107758,228.108215 296.657074,228.711777 299.995667,230.941971 
	C305.609802,234.692276 310.410248,239.658020 315.566956,244.096191 
	C331.031555,257.405914 346.502869,270.707825 362.143311,284.299377 
	C364.683472,286.664520 366.970367,288.846008 369.437714,290.799622 
	C374.197296,294.568146 379.058716,298.208008 383.877930,301.901215 
	C383.877930,301.901215 384.013397,302.357513 384.013580,303.010040 
	C384.536407,307.048828 385.741547,310.494720 385.451782,313.809967 
	C384.633362,323.173553 377.804535,328.482880 370.825012,333.404449 
	C368.529694,335.022980 366.331543,334.886017 363.844604,332.573669 
	C357.665009,326.827911 351.065735,321.529358 344.570496,316.128723 
	C340.818481,313.009033 337.082001,313.203674 333.984619,316.479370 
	C330.955139,319.683258 331.079956,323.536377 334.499329,326.967224 
	C336.366547,328.840729 338.617493,330.350281 340.361206,332.319855 
	C341.126038,333.183777 341.752563,335.382324 341.257202,335.961426 
	C336.539520,341.476471 331.688171,346.892059 326.611328,352.077881 
	C324.463715,354.271545 322.251343,353.810730 319.822754,351.462677 
	C314.587067,346.400726 308.981995,341.711426 303.407928,337.012146 
	C299.761414,333.937958 295.898895,334.277222 292.840210,337.625000 
	C289.893463,340.850281 290.092743,344.638794 293.645813,348.095764 
	C295.060333,349.472015 296.876343,350.435669 299.026611,351.951721 
	C293.269592,358.296844 288.406708,363.468292 283.765533,368.831573 
	C280.062927,373.110229 275.343292,375.387482 269.921204,375.833771 
	C266.688385,376.099823 263.363159,375.243774 260.060181,374.465637 
	C259.676514,356.310577 247.095352,349.686005 228.368774,357.636841 
	C230.147980,348.637177 229.268448,340.331421 220.931641,335.109802 
	C211.481232,329.190674 202.921600,331.774750 194.737320,340.441620 
	C197.338715,329.453979 194.365936,321.559052 185.578049,316.948364 
	C175.690887,311.760864 167.353073,315.423737 160.531418,324.041077 
	C160.278641,322.907532 160.095001,322.568939 160.154510,322.280457 
	C161.994705,313.359283 158.880646,305.298187 152.143356,301.604279 
	C143.865112,297.065521 135.793213,298.154114 128.787918,304.644409 
	C127.747093,305.608704 126.375298,306.215759 125.156631,306.988098 
	C115.768532,306.331299 106.380424,305.674500 96.541565,305.039642 
z"/>
<path fill="#F29F5C" opacity="1.000000" stroke="none" 
	d="
M125.123642,307.349792 
	C126.375298,306.215759 127.747093,305.608704 128.787918,304.644409 
	C135.793213,298.154114 143.865112,297.065521 152.143356,301.604279 
	C158.880646,305.298187 161.994705,313.359283 160.154510,322.280457 
	C160.095001,322.568939 160.278641,322.907532 160.531418,324.041077 
	C167.353073,315.423737 175.690887,311.760864 185.578049,316.948364 
	C194.365936,321.559052 197.338715,329.453979 194.737320,340.441620 
	C202.921600,331.774750 211.481232,329.190674 220.931641,335.109802 
	C229.268448,340.331421 230.147980,348.637177 228.368774,357.636841 
	C247.095352,349.686005 259.676514,356.310577 259.903625,374.803406 
	C257.283447,379.778290 254.941635,384.080414 252.283142,388.177032 
	C248.642975,393.786346 244.762268,399.239563 240.984650,404.759674 
	C230.392914,415.248077 218.578201,413.408234 210.468307,404.004883 
	C206.366119,399.248413 206.982590,393.571045 207.302094,387.388763 
	C207.617752,386.376770 207.649536,385.950256 207.681335,385.523712 
	C207.266190,385.849915 206.851059,386.176086 206.435913,386.502289 
	C199.826767,389.635925 193.088882,390.381622 186.511032,386.724396 
	C178.451477,382.243317 175.239731,373.504547 177.851227,363.152222 
	C169.898895,367.653931 162.027267,368.218903 154.826141,362.855652 
	C147.692902,357.542877 145.677017,350.031189 148.154984,340.543030 
	C141.029572,344.322510 134.525452,345.283813 127.748070,341.957794 
	C116.639816,336.506439 114.676498,322.808044 121.159515,313.356476 
	C122.456490,311.465607 123.779594,309.592651 125.123642,307.349792 
z"/>
<path fill="#E5A06B" opacity="1.000000" stroke="none" 
	d="
M241.391846,404.868958 
	C244.762268,399.239563 248.642975,393.786346 252.283142,388.177032 
	C254.941635,384.080414 257.283447,379.778290 259.922974,375.229980 
	C263.363159,375.243774 266.688385,376.099823 269.921204,375.833771 
	C275.343292,375.387482 280.062927,373.110229 283.765533,368.831573 
	C288.406708,363.468292 293.269592,358.296844 299.026611,351.951721 
	C296.876343,350.435669 295.060333,349.472015 293.645813,348.095764 
	C290.092743,344.638794 289.893463,340.850281 292.840210,337.625000 
	C295.898895,334.277222 299.761414,333.937958 303.407928,337.012146 
	C308.981995,341.711426 314.587067,346.400726 319.822754,351.462677 
	C322.251343,353.810730 324.463715,354.271545 326.611328,352.077881 
	C331.688171,346.892059 336.539520,341.476471 341.257202,335.961426 
	C341.752563,335.382324 341.126038,333.183777 340.361206,332.319855 
	C338.617493,330.350281 336.366547,328.840729 334.499329,326.967224 
	C331.079956,323.536377 330.955139,319.683258 333.984619,316.479370 
	C337.082001,313.203674 340.818481,313.009033 344.570496,316.128723 
	C351.065735,321.529358 357.665009,326.827911 363.844604,332.573669 
	C366.331543,334.886017 368.529694,335.022980 370.825012,333.404449 
	C377.804535,328.482880 384.633362,323.173553 385.451782,313.809967 
	C385.741547,310.494720 384.536407,307.048828 384.018066,303.247986 
	C388.220032,306.290009 392.435211,309.725647 396.611450,313.207977 
	C403.379028,318.851044 405.203827,328.629852 400.218231,336.405426 
	C392.408203,348.586060 378.290741,353.538879 365.761963,344.828766 
	C362.853333,348.194977 359.616364,351.432831 356.968719,355.096588 
	C347.359924,368.393036 334.999756,371.668365 321.836273,364.175964 
	C316.718018,369.766724 311.730438,375.473022 306.460724,380.905701 
	C299.835480,387.735870 289.018585,389.165771 280.998322,384.241455 
	C278.866058,382.932312 278.064880,382.809692 276.287170,384.892700 
	C271.280823,390.758789 266.209930,396.680725 260.431122,401.743652 
	C255.207397,406.320221 248.604126,407.303131 241.391846,404.868958 
z"/>
<path fill="#D37E43" opacity="1.000000" stroke="none" 
	d="
M384.033966,301.587433 
	C379.058716,298.208008 374.197296,294.568146 369.437714,290.799622 
	C366.970367,288.846008 364.683472,286.664520 362.294952,283.995178 
	C367.057922,279.579742 371.720551,275.588562 376.676636,272.003082 
	C379.031982,270.299103 381.838501,268.632050 384.627960,268.221710 
	C394.109314,266.826843 403.674133,265.999420 413.417328,265.290863 
	C414.485962,272.433411 415.344330,279.240387 416.202667,286.047394 
	C416.467773,289.388092 416.732880,292.728821 416.939026,296.493713 
	C409.436798,296.929779 401.985870,297.148865 394.553192,296.874146 
	C390.234711,296.714447 386.838623,297.903625 384.033966,301.587433 
z"/>
<path fill="#F29F5C" opacity="1.000000" stroke="none" 
	d="
M413.207092,264.955322 
	C403.674133,265.999420 394.109314,266.826843 384.627960,268.221710 
	C381.838501,268.632050 379.031982,270.299103 376.676636,272.003082 
	C371.720551,275.588562 367.057922,279.579742 362.123199,283.708618 
	C346.502869,270.707825 331.031555,257.405914 315.566956,244.096191 
	C310.410248,239.658020 305.609802,234.692276 299.995667,230.941971 
	C296.657074,228.711777 292.107758,228.108215 288.003571,227.244598 
	C275.463531,224.605820 264.551941,218.943207 255.489624,209.930832 
	C252.527466,206.984955 250.901840,206.199127 247.925659,210.271790 
	C241.377426,219.232544 234.672668,228.193298 227.066284,236.241531 
	C213.138550,250.978302 195.785126,253.257507 177.105789,247.410110 
	C168.020309,244.565979 164.843201,236.395782 169.545456,228.021698 
	C179.793793,209.770813 190.418518,191.731033 200.915970,173.620377 
	C207.330475,162.553772 213.785217,151.510452 220.244278,140.469788 
	C221.407684,138.481140 222.679977,136.556198 223.905365,134.243103 
	C230.422470,126.088730 239.413635,123.933914 248.897186,123.015663 
	C266.394226,121.321487 283.874420,119.317551 301.410065,118.210091 
	C311.466248,117.574989 321.879120,114.256340 331.673706,119.009689 
	C340.522308,123.303940 349.020538,128.328308 357.617340,133.130798 
	C365.492767,137.530289 373.052551,142.603256 381.250000,146.262527 
	C384.368744,147.654724 388.879395,145.962921 392.750427,145.618164 
	C394.210541,145.488113 395.655914,145.192627 397.846161,145.191818 
	C401.394501,167.627350 404.267029,189.835953 406.995026,212.062317 
	C409.157623,229.682037 411.143005,247.323502 413.207092,264.955322 
z"/>
<path fill="#5C9CEE" opacity="1.000000" stroke="none" 
	d="
M413.417358,265.290863 
	C411.143005,247.323502 409.157623,229.682037 406.995026,212.062317 
	C404.267029,189.835953 401.394501,167.627350 398.274902,145.145721 
	C398.148254,139.916794 397.605988,134.793961 398.654633,130.020660 
	C401.396973,117.538216 413.017334,110.097321 425.286133,108.909164 
	C437.853699,107.692062 450.347015,105.715958 462.879150,104.121788 
	C468.738770,103.376404 474.600922,102.592415 480.485657,102.124809 
	C484.040253,101.842361 488.445190,105.619011 488.908569,109.295387 
	C490.059418,118.425583 490.877899,127.597679 492.028625,136.727890 
	C493.546417,148.769897 495.335663,160.777710 496.853790,172.819687 
	C498.025818,182.116089 498.890747,191.450897 500.019440,200.753189 
	C501.185394,210.362503 502.564362,219.945877 503.740540,229.554031 
	C504.898682,239.015152 505.850433,248.501617 507.019226,257.961334 
	C508.265747,268.050476 509.660370,278.121277 510.921143,288.618896 
	C499.841553,293.814972 487.859497,292.979187 476.358765,294.908417 
	C466.428894,296.574219 456.367279,297.447693 446.370850,298.725403 
	C434.117157,300.291565 424.242065,296.222992 416.481445,286.213409 
	C415.344330,279.240387 414.485962,272.433411 413.417358,265.290863 
M473.826385,266.544464 
	C468.356812,262.837433 462.706543,262.433533 457.074249,265.997986 
	C452.316925,269.008667 450.253113,273.621979 450.668335,279.134674 
	C451.168365,285.773376 455.620300,290.683014 461.907471,292.046295 
	C468.203522,293.411499 474.477448,290.616241 477.535828,285.083374 
	C480.939728,278.925354 479.900940,272.940063 473.826385,266.544464 
z"/>
<path fill="#ED5575" opacity="1.000000" stroke="none" 
	d="
M115.056007,151.502747 
	C114.077332,157.939728 112.856873,163.919754 112.081055,169.956909 
	C109.382278,190.957916 106.813316,211.975784 104.241875,232.992966 
	C102.111778,250.402939 100.047882,267.821014 97.891449,285.672302 
	C93.024490,289.747650 88.549950,293.975037 83.340347,296.887695 
	C75.394524,301.330200 66.737610,298.378693 58.434380,297.562714 
	C45.781551,296.319275 33.154869,294.725189 20.570162,292.911682 
	C14.938375,292.100128 9.435320,290.395203 3.513353,289.058228 
	C4.752865,276.871826 6.460783,264.735809 7.922789,252.570267 
	C9.410148,240.193771 10.521250,227.771698 12.040908,215.399536 
	C13.876867,200.452240 16.062651,185.548065 17.920996,170.603333 
	C19.418343,158.561722 20.626072,146.484329 22.015575,134.428970 
	C22.972395,126.127579 23.944147,117.826454 25.056664,109.545013 
	C25.700439,104.752815 30.543158,102.008171 35.529335,102.699776 
	C44.949287,104.006363 54.456219,104.695427 63.867020,106.056030 
	C75.960892,107.804550 88.131844,109.378258 100.007645,112.149704 
	C107.800980,113.968430 116.750229,125.054565 116.009575,135.302414 
	C115.629921,140.555374 115.345535,145.815231 115.056007,151.502747 
M34.044727,280.953278 
	C34.655849,282.485107 35.084938,284.123474 35.908813,285.530762 
	C40.026886,292.564758 49.688503,294.639709 56.291519,289.994659 
	C63.385929,285.003845 64.828949,275.549408 59.493805,269.014069 
	C55.339848,263.925659 48.983612,262.218689 42.924320,264.564301 
	C36.651127,266.992706 33.785637,271.968475 34.044727,280.953278 
z"/>
<path fill="#FFFFFF" opacity="1.000000" stroke="none" 
	d="
M206.591766,386.650574 
	C206.851059,386.176086 207.266190,385.849915 207.681335,385.523712 
	C207.649536,385.950256 207.617752,386.376770 207.334518,386.935791 
	C207.083069,387.068237 206.747604,386.798859 206.591766,386.650574 
z"/>
<path fill="#E9EDF2" opacity="1.000000" stroke="none" 
	d="
M474.113647,266.782593 
	C479.900940,272.940063 480.939728,278.925354 477.535828,285.083374 
	C474.477448,290.616241 468.203522,293.411499 461.907471,292.046295 
	C455.620300,290.683014 451.168365,285.773376 450.668335,279.134674 
	C450.253113,273.621979 452.316925,269.008667 457.074249,265.997986 
	C462.706543,262.433533 468.356812,262.837433 474.113647,266.782593 
z"/>
<path fill="#EBEBF0" opacity="1.000000" stroke="none" 
	d="
M34.007164,280.533508 
	C33.785637,271.968475 36.651127,266.992706 42.924320,264.564301 
	C48.983612,262.218689 55.339848,263.925659 59.493805,269.014069 
	C64.828949,275.549408 63.385929,285.003845 56.291519,289.994659 
	C49.688503,294.639709 40.026886,292.564758 35.908813,285.530762 
	C35.084938,284.123474 34.655849,282.485107 34.007164,280.533508 
z"/>
</svg>