<svg version="1.1" id="Layer_1" xmlns="http://www.w3.org/2000/svg" xmlns:xlink="http://www.w3.org/1999/xlink" x="0px" y="0px"
	 width="100%" viewBox="0 0 512 512" enable-background="new 0 0 512 512" xml:space="preserve">
<path fill="#00cfcf" opacity="1.000000" stroke="none" 
	d="
M0.999999,279.000000 
	C1.000000,264.645782 1.000000,250.291550 1.317605,235.202271 
	C2.111180,229.199768 2.248487,223.875519 3.120372,218.674438 
	C7.432045,192.953873 14.636590,168.090805 26.173542,144.625336 
	C43.100826,110.196274 66.697212,81.106201 96.485703,56.932884 
	C118.686165,38.917240 143.241272,25.140778 170.096085,15.514693 
	C187.390518,9.315518 205.127151,4.755414 223.482956,2.882036 
	C227.345749,2.487803 231.162201,1.639226 235.000000,1.000001 
	C249.354233,1.000000 263.708466,1.000000 278.797729,1.317596 
	C284.800171,2.111159 290.124329,2.248469 295.325378,3.120348 
	C321.045959,7.432020 345.909088,14.636522 369.374542,26.173504 
	C403.803619,43.100803 432.893799,66.697105 457.067108,96.485680 
	C475.082733,118.686157 488.859192,143.241257 498.485291,170.096069 
	C504.684479,187.390518 509.244598,205.127121 511.118011,223.482941 
	C511.512238,227.345749 512.360779,231.162186 513.000000,235.000000 
	C513.000000,249.354233 513.000000,263.708466 512.682373,278.797729 
	C510.391968,292.065186 509.041504,304.734619 506.317810,317.101624 
	C500.506531,343.488220 490.073181,368.149689 475.869019,391.099640 
	C463.975861,410.315674 450.147400,428.049805 432.559967,443.008484 
	C413.220123,442.998413 394.349518,443.111023 375.482605,442.897064 
	C370.960724,442.845764 366.451172,441.708282 362.263123,440.938873 
	C366.270203,438.845825 368.789764,436.142731 369.662048,431.803375 
	C377.549683,392.566010 385.540375,353.349396 393.511017,314.128754 
	C394.470795,309.406036 392.738068,305.722839 388.540344,303.813110 
	C385.777771,302.556305 382.501465,302.023193 379.430908,301.924774 
	C370.129547,301.626556 360.816376,301.697998 351.377136,301.278839 
	C340.721375,273.010193 319.454346,258.410950 291.031647,252.222412 
	C288.355011,248.506073 285.826965,245.069824 283.286346,241.207291 
	C282.723969,236.178574 282.174164,231.576141 281.766907,226.654846 
	C292.055389,217.614761 299.915771,207.229233 304.609528,194.633133 
	C306.580109,189.344925 308.175354,183.916855 310.206146,178.291290 
	C322.403473,158.896027 329.671783,138.209732 330.732361,115.587440 
	C332.039825,87.698753 317.451263,65.779274 291.497467,57.246384 
	C269.382843,49.975700 246.909882,49.757526 224.657471,56.602112 
	C198.041061,64.789024 183.233551,84.514481 183.289474,112.336380 
	C183.337845,136.408890 190.991104,158.406265 204.204422,178.865326 
	C209.100021,197.425980 216.879791,213.890854 231.923843,226.091782 
	C232.158447,226.282059 232.228729,226.674973 232.248672,227.386292 
	C231.648148,232.410721 231.174667,237.022202 230.457581,241.869263 
	C227.749969,245.557617 225.285965,249.010376 222.414352,252.531799 
	C217.997940,253.693008 213.911850,254.561798 209.993042,255.914948 
	C187.118118,263.813568 170.728546,278.521820 162.023575,301.705261 
	C151.602356,301.832458 141.600937,301.658661 131.618118,302.011536 
	C123.178391,302.309875 119.229202,307.501190 120.855179,315.572327 
	C128.607452,354.053772 136.453934,392.516327 144.135101,431.011902 
	C145.104935,435.872437 147.443481,439.225952 151.996124,441.351410 
	C152.002060,441.814575 152.005661,441.999817 151.541168,442.172546 
	C127.705208,442.443817 104.337326,442.727661 80.666908,442.873535 
	C72.583504,434.342072 64.446426,426.247803 57.091858,417.496002 
	C38.687080,395.594574 25.170586,370.806915 15.528446,343.939911 
	C9.318449,326.636261 4.766382,308.888275 2.883231,290.523865 
	C2.486897,286.658844 1.639534,282.840088 0.999999,279.000000 
z"/>
<path fill="#54C0EB" opacity="1.000000" stroke="none" 
	d="
M361.935944,441.070404 
	C366.451172,441.708282 370.960724,442.845764 375.482605,442.897064 
	C394.349518,443.111023 413.220123,442.998413 432.419495,443.311615 
	C427.665649,448.068695 422.673798,452.630310 417.481842,456.951477 
	C395.516663,475.232849 370.865204,488.829376 344.005066,498.404999 
	C326.790955,504.541779 309.184937,509.185974 290.920471,511.039734 
	C287.251801,511.412109 283.638702,512.332336 280.000000,513.000000 
	C264.979095,513.000000 249.958206,513.000000 234.239395,512.650635 
	C215.462677,510.854675 197.808456,507.253418 180.479019,501.946320 
	C154.176559,493.891296 129.829636,481.785217 107.623413,465.659943 
	C98.216812,458.829224 89.823372,450.603271 80.969444,443.011475 
	C104.337326,442.727661 127.705208,442.443817 151.881119,442.392822 
	C153.339127,442.746857 153.989090,442.973969 154.639099,442.974182 
	C222.067169,442.995392 289.495239,443.010468 356.923218,442.927948 
	C358.298157,442.926270 359.671722,441.778625 361.261047,441.072510 
	C361.476135,440.979431 361.935944,441.070404 361.935944,441.070404 
z"/>
<path fill="#FFFFFF" opacity="1.000000" stroke="none" 
	d="
M234.531342,1.000001 
	C231.162201,1.639226 227.345749,2.487803 223.482956,2.882036 
	C205.127151,4.755414 187.390518,9.315518 170.096085,15.514693 
	C143.241272,25.140778 118.686165,38.917240 96.485703,56.932884 
	C66.697212,81.106201 43.100826,110.196274 26.173542,144.625336 
	C14.636590,168.090805 7.432045,192.953873 3.120372,218.674438 
	C2.248487,223.875519 2.111180,229.199768 1.317605,234.733612 
	C1.000000,157.072952 1.000000,79.145912 1.000000,1.000000 
	C78.687424,1.000000 156.375061,1.000000 234.531342,1.000001 
z"/>
<path fill="#FFFFFF" opacity="1.000000" stroke="none" 
	d="
M513.000000,234.531342 
	C512.360779,231.162186 511.512238,227.345749 511.118011,223.482941 
	C509.244598,205.127121 504.684479,187.390518 498.485291,170.096069 
	C488.859192,143.241257 475.082733,118.686157 457.067108,96.485680 
	C432.893799,66.697105 403.803619,43.100803 369.374542,26.173504 
	C345.909088,14.636522 321.045959,7.432020 295.325378,3.120348 
	C290.124329,2.248469 284.800171,2.111159 279.266357,1.317596 
	C356.927032,1.000000 434.854095,1.000000 513.000000,1.000000 
	C513.000000,78.687424 513.000000,156.375061 513.000000,234.531342 
z"/>
<path fill="#FFFFFF" opacity="1.000000" stroke="none" 
	d="
M80.666908,442.873535 
	C89.823372,450.603271 98.216812,458.829224 107.623413,465.659943 
	C129.829636,481.785217 154.176559,493.891296 180.479019,501.946320 
	C197.808456,507.253418 215.462677,510.854675 233.770737,512.650635 
	C156.406143,513.000000 78.812286,513.000000 1.000000,513.000000 
	C1.000000,435.312561 1.000000,357.624939 0.999999,279.468658 
	C1.639534,282.840088 2.486897,286.658844 2.883231,290.523865 
	C4.766382,308.888275 9.318449,326.636261 15.528446,343.939911 
	C25.170586,370.806915 38.687080,395.594574 57.091858,417.496002 
	C64.446426,426.247803 72.583504,434.342072 80.666908,442.873535 
z"/>
<path fill="#FFFFFF" opacity="1.000000" stroke="none" 
	d="
M280.468658,513.000000 
	C283.638702,512.332336 287.251801,511.412109 290.920471,511.039734 
	C309.184937,509.185974 326.790955,504.541779 344.005066,498.404999 
	C370.865204,488.829376 395.516663,475.232849 417.481842,456.951477 
	C422.673798,452.630310 427.665649,448.068695 432.890076,443.314575 
	C450.147400,428.049805 463.975861,410.315674 475.869019,391.099640 
	C490.073181,368.149689 500.506531,343.488220 506.317810,317.101624 
	C509.041504,304.734619 510.391968,292.065186 512.682373,279.266418 
	C513.000000,356.926880 513.000000,434.853760 513.000000,513.000000 
	C435.645905,513.000000 358.291626,513.000000 280.468658,513.000000 
z"/>
<path fill="#324A5E" opacity="1.000000" stroke="none" 
	d="
M362.263123,440.938873 
	C361.935944,441.070404 361.476135,440.979431 360.841888,441.123291 
	C357.230438,441.511139 354.253357,441.966125 351.275970,441.968079 
	C288.651794,442.009216 226.027557,442.015350 163.403397,441.959686 
	C159.599945,441.956299 155.796982,441.382111 151.993790,441.073517 
	C147.443481,439.225952 145.104935,435.872437 144.135101,431.011902 
	C136.453934,392.516327 128.607452,354.053772 120.855179,315.572327 
	C119.229202,307.501190 123.178391,302.309875 131.618118,302.011536 
	C141.600937,301.658661 151.602356,301.832458 162.531876,301.783752 
	C225.321335,301.806580 287.174622,301.824463 349.027924,301.831696 
	C349.854553,301.831787 350.681152,301.697174 351.507782,301.625427 
	C360.816376,301.697998 370.129547,301.626556 379.430908,301.924774 
	C382.501465,302.023193 385.777771,302.556305 388.540344,303.813110 
	C392.738068,305.722839 394.470795,309.406036 393.511017,314.128754 
	C385.540375,353.349396 377.549683,392.566010 369.662048,431.803375 
	C368.789764,436.142731 366.270203,438.845825 362.263123,440.938873 
M249.512726,353.998138 
	C245.460327,354.797119 241.204041,355.067688 237.408463,356.532257 
	C232.920334,358.264069 227.001068,359.835358 227.216507,365.979340 
	C227.434219,372.188019 232.832993,375.029633 238.081146,375.999084 
	C246.496109,377.553467 255.128693,378.847290 263.635590,378.666382 
	C269.389160,378.544037 275.388885,376.338806 280.681854,373.814178 
	C283.446198,372.495667 286.447205,368.510895 286.514221,365.663788 
	C286.571686,363.225739 283.066376,359.818756 280.327423,358.360809 
	C270.989532,353.390350 260.792389,352.666840 249.512726,353.998138 
z"/>
<path fill="#FED05B" opacity="1.000000" stroke="none" 
	d="
M309.941223,178.552368 
	C308.175354,183.916855 306.580109,189.344925 304.609528,194.633133 
	C299.915771,207.229233 292.055389,217.614761 281.423615,226.685074 
	C280.171234,227.326263 279.342285,227.513229 278.647400,227.926010 
	C264.329407,236.431320 249.997589,236.415909 235.601196,228.113892 
	C234.629837,227.553711 233.455582,227.345322 232.375702,226.973312 
	C232.228729,226.674973 232.158447,226.282059 231.923843,226.091782 
	C216.879791,213.890854 209.100021,197.425980 204.239258,178.394501 
	C201.513229,162.037140 201.341354,146.506226 205.062302,131.066467 
	C208.489517,116.845543 214.274323,103.816566 224.393860,92.651978 
	C226.160477,94.267166 227.626999,95.605957 229.091354,96.947098 
	C249.985062,116.082779 274.027557,129.929062 300.691772,139.262833 
	C311.544556,143.061859 311.909210,142.868393 311.764160,154.731812 
	C311.667023,162.678238 310.583405,170.612610 309.941223,178.552368 
z"/>
<path fill="#334B5F" opacity="1.000000" stroke="none" 
	d="
M310.206146,178.291290 
	C310.583405,170.612610 311.667023,162.678238 311.764160,154.731812 
	C311.909210,142.868393 311.544556,143.061859 300.691772,139.262833 
	C274.027557,129.929062 249.985062,116.082779 229.091354,96.947098 
	C227.626999,95.605957 226.160477,94.267166 224.393860,92.651978 
	C214.274323,103.816566 208.489517,116.845543 205.062302,131.066467 
	C201.341354,146.506226 201.513229,162.037140 204.093597,178.081512 
	C190.991104,158.406265 183.337845,136.408890 183.289474,112.336380 
	C183.233551,84.514481 198.041061,64.789024 224.657471,56.602112 
	C246.909882,49.757526 269.382843,49.975700 291.497467,57.246384 
	C317.451263,65.779274 332.039825,87.698753 330.732361,115.587440 
	C329.671783,138.209732 322.403473,158.896027 310.206146,178.291290 
z"/>
<path fill="#FD7059" opacity="1.000000" stroke="none" 
	d="
M351.377136,301.278870 
	C350.681152,301.697174 349.854553,301.831787 349.027924,301.831696 
	C287.174622,301.824463 225.321335,301.806580 162.959732,301.711060 
	C170.728546,278.521820 187.118118,263.813568 209.993042,255.914948 
	C213.911850,254.561798 217.997940,253.693008 222.576111,252.879364 
	C229.522736,262.220764 235.899994,271.283264 242.817078,281.112915 
	C247.665344,270.763092 252.096024,261.304718 257.017822,250.797897 
	C262.042969,261.553436 266.437439,270.959106 271.201477,281.155762 
	C278.257355,271.036285 284.718811,261.769379 291.180237,252.502487 
	C319.454346,258.410950 340.721375,273.010193 351.377136,301.278870 
z"/>
<path fill="#FFFDFC" opacity="1.000000" stroke="none" 
	d="
M291.031647,252.222412 
	C284.718811,261.769379 278.257355,271.036285 271.201477,281.155762 
	C266.437439,270.959106 262.042969,261.553436 257.017822,250.797897 
	C252.096024,261.304718 247.665344,270.763092 242.817078,281.112915 
	C235.899994,271.283264 229.522736,262.220764 222.983719,252.810699 
	C225.285965,249.010376 227.749969,245.557617 230.851044,241.959503 
	C233.877945,242.974228 236.289627,244.091614 238.653854,245.301697 
	C249.721542,250.966522 260.941315,252.085876 272.440613,246.591476 
	C276.030182,244.876358 279.677856,243.282791 283.298920,241.633575 
	C285.826965,245.069824 288.355011,248.506073 291.031647,252.222412 
z"/>
<path fill="#F9B64E" opacity="1.000000" stroke="none" 
	d="
M283.286346,241.207291 
	C279.677856,243.282791 276.030182,244.876358 272.440613,246.591476 
	C260.941315,252.085876 249.721542,250.966522 238.653854,245.301697 
	C236.289627,244.091614 233.877945,242.974228 231.094650,241.723907 
	C231.174667,237.022202 231.648148,232.410721 232.248672,227.386292 
	C233.455582,227.345322 234.629837,227.553711 235.601196,228.113892 
	C249.997589,236.415909 264.329407,236.431320 278.647400,227.926010 
	C279.342285,227.513229 280.171234,227.326263 281.281067,227.003937 
	C282.174164,231.576141 282.723969,236.178574 283.286346,241.207291 
z"/>
<path fill="#7AD3F7" opacity="1.000000" stroke="none" 
	d="
M151.996124,441.351410 
	C155.796982,441.382111 159.599945,441.956299 163.403397,441.959686 
	C226.027557,442.015350 288.651794,442.009216 351.275970,441.968079 
	C354.253357,441.966125 357.230438,441.511139 360.626801,441.216370 
	C359.671722,441.778625 358.298157,442.926270 356.923218,442.927948 
	C289.495239,443.010468 222.067169,442.995392 154.639099,442.974182 
	C153.989090,442.973969 153.339127,442.746857 152.349213,442.405365 
	C152.005661,441.999817 152.002060,441.814575 151.996124,441.351410 
z"/>
<path fill="#2B3B4E" opacity="1.000000" stroke="none" 
	d="
M249.960526,353.994904 
	C260.792389,352.666840 270.989532,353.390350 280.327423,358.360809 
	C283.066376,359.818756 286.571686,363.225739 286.514221,365.663788 
	C286.447205,368.510895 283.446198,372.495667 280.681854,373.814178 
	C275.388885,376.338806 269.389160,378.544037 263.635590,378.666382 
	C255.128693,378.847290 246.496109,377.553467 238.081146,375.999084 
	C232.832993,375.029633 227.434219,372.188019 227.216507,365.979340 
	C227.001068,359.835358 232.920334,358.264069 237.408463,356.532257 
	C241.204041,355.067688 245.460327,354.797119 249.960526,353.994904 
z"/>
</svg>